<svg id="visual" viewBox="0 0 900 600" width="900" height="600" xmlns="http://www.w3.org/2000/svg" xmlns:xlink="http://www.w3.org/1999/xlink" version="1.1">
    <defs>
        <linearGradient id="grad1_0" x1="33.3%" y1="0%" x2="100%" y2="100%">
            <stop offset="20%" stop-color="#222222" stop-opacity="1"></stop>
            <stop offset="80%" stop-color="#222222" stop-opacity="1"></stop>
        </linearGradient>
    </defs>
    <defs>
        <linearGradient id="grad2_0" x1="0%" y1="0%" x2="66.7%" y2="100%">
            <stop offset="20%" stop-color="#222222" stop-opacity="1"></stop><stop offset="80%" stop-color="#222222" stop-opacity="1"></stop>
        </linearGradient>
    </defs>
    <g transform="translate(900, 0)">
        <path d="M0 270.4C-25 258.6 -50.1 246.9 -78.2 240.6C-106.3 234.4 -137.4 233.7 -158.9 218.8C-180.5 203.9 -192.4 174.7 -206.3 149.9C-220.2 125.1 -236.2 104.6 -247.3 80.3C-258.3 56.1 -264.4 28 -270.4 0L0 0Z" fill="#3d405b">
        </path>
    </g>
    <g transform="translate(0, 600)">
        <path d="M0 -270.4C27 -265.5 54 -260.6 82.5 -253.9C111 -247.2 141 -238.7 158.9 -218.8C176.9 -198.9 182.8 -167.6 198.2 -144C213.6 -120.4 238.4 -104.6 252 -81.9C265.6 -59.2 268 -29.6 270.4 0L0 0Z" fill="#3d405b">
        </path>
    </g>
</svg>