<svg id="wave" viewBox="0 0 1440 100" preserveAspectRatio="none" version="1.1" xmlns="http://www.w3.org/2000/svg">
    <path d="M0,30L40,38.3C80,47,160,63,240,70C320,77,400,73,480,70C560,67,640,63,720,51.7C800,40,880,20,960,15C1040,10,1120,20,1200,20C1280,20,1360,10,1440,13.3C1520,17,1600,33,1680,40C1760,47,1840,43,1920,46.7C2000,50,2080,60,2160,65C2240,70,2320,70,2400,70C2480,70,2560,70,2640,73.3C2720,77,2800,83,2880,76.7C2960,70,3040,50,3120,35C3200,20,3280,10,3360,20C3440,30,3520,60,3600,75C3680,90,3760,90,3840,88.3C3920,87,4000,83,4080,73.3C4160,63,4240,47,4320,46.7C4400,47,4480,63,4560,63.3C4640,63,4720,47,4800,36.7C4880,27,4960,23,5040,28.3C5120,33,5200,47,5280,50C5360,53,5440,47,5520,40C5600,33,5680,27,5720,23.3L5760,20L5760,100L5720,100C5680,100,5600,100,5520,100C5440,100,5360,100,5280,100C5200,100,5120,100,5040,100C4960,100,4880,100,4800,100C4720,100,4640,100,4560,100C4480,100,4400,100,4320,100C4240,100,4160,100,4080,100C4000,100,3920,100,3840,100C3760,100,3680,100,3600,100C3520,100,3440,100,3360,100C3280,100,3200,100,3120,100C3040,100,2960,100,2880,100C2800,100,2720,100,2640,100C2560,100,2480,100,2400,100C2320,100,2240,100,2160,100C2080,100,2000,100,1920,100C1840,100,1760,100,1680,100C1600,100,1520,100,1440,100C1360,100,1280,100,1200,100C1120,100,1040,100,960,100C880,100,800,100,720,100C640,100,560,100,480,100C400,100,320,100,240,100C160,100,80,100,40,100L0,100Z">
    </path>
</svg>